<svg width="61" height="75" viewBox="0 0 61 75" fill="none" xmlns="http://www.w3.org/2000/svg">
<path d="M48.4206 18.677C54.85 14.2765 58.2369 8.75862 55.9855 6.35248C53.7341 3.9463 46.6969 5.56305 40.2677 9.96354C33.8383 14.3641 30.4514 19.8819 32.7028 22.2881C34.9541 24.6942 41.9912 23.0775 48.4206 18.677Z" fill="#E4FFF1"/>
<path d="M26.8574 22.9983C28.7924 21.3433 26.0542 16.3181 20.7414 11.7742C15.4286 7.23026 9.55308 4.88834 7.61804 6.54334C5.68299 8.19833 8.42119 13.2236 13.734 17.7675C19.0468 22.3114 24.9223 24.6533 26.8574 22.9983Z" fill="#E4FFF1"/>
<path d="M52.8973 47.4484C55.7108 45.5232 53.8204 39.5045 48.6754 34.0055C43.5303 28.5066 37.0787 25.6099 34.2654 27.5354C31.4521 29.461 33.3424 35.4796 38.4875 40.9784C43.6324 46.4773 50.0842 49.374 52.8973 47.4484Z" fill="#FF7589"/>
<path d="M6.30806 49.5223C6.30806 55.2504 8.9686 60.744 13.7044 64.7943C18.4401 68.8448 24.8632 71.1203 31.5606 71.1203C45.5075 71.1203 66.3253 51.555 53.0653 47.865C38.5173 43.8172 31.8078 28.3434 28.7927 28.0543C14.9333 26.7241 6.30806 37.5941 6.30806 49.5223Z" fill="#FF7589"/>
<path d="M0.0122373 3.25977C0.0193723 7.91668 1.48199 12.4873 4.24864 16.4982C7.01526 20.5092 10.9853 23.8146 15.7476 26.0722C13.2517 27.2562 10.9617 28.7328 8.94403 30.4592C4.41769 34.3266 1.42795 39.3136 0.397896 44.7142C-0.632156 50.1149 0.349646 55.656 3.20436 60.5532C6.05906 65.4503 10.6421 69.4558 16.305 72.0027C21.9679 74.5492 28.4237 75.5086 34.7591 74.7443C41.0944 73.9801 46.9886 71.5315 51.6071 67.7446C56.2257 63.9576 59.3346 59.0246 60.4945 53.6431C61.6545 48.2617 60.8065 42.7045 58.0701 37.7581C55.3342 32.8117 50.8484 28.7264 45.2483 26.0804C50.017 23.826 53.9925 20.5206 56.7625 16.5076C59.5325 12.4947 60.9957 7.92059 60.9998 3.26048C60.9998 2.83233 60.9015 2.40835 60.7098 2.01276C60.5186 1.61717 60.2377 1.25773 59.8839 0.954957C59.5296 0.652187 59.1093 0.412023 58.6468 0.248186C58.1846 0.0843481 57.6889 4.61167e-05 57.1881 9.27317e-05C53.1819 -0.00907406 49.213 0.661469 45.5121 1.97292C41.8108 3.28436 38.4503 5.21065 35.6253 7.64032C33.607 9.36603 31.8806 11.3247 30.4965 13.4593C27.859 9.38462 23.9947 5.9878 19.3046 3.62133C14.6145 1.25483 9.26936 0.00487308 3.8239 0.00115388C3.32346 0.00106068 2.82789 0.0852766 2.3655 0.248987C1.9031 0.412697 1.48294 0.652698 1.12899 0.955288C0.775046 1.25788 0.494253 1.61713 0.30264 2.01254C0.111026 2.40794 0.0123463 2.83175 0.0122373 3.25977ZM34.706 22.484C35.5547 18.6065 37.754 15.0389 41.0154 12.2494C44.2767 9.45984 48.448 7.57865 52.9815 6.85263C52.1265 10.7278 49.9249 14.2924 46.665 17.0809C43.4046 19.8695 39.2368 21.7525 34.706 22.484ZM46.67 35.076C49.9324 37.862 52.1327 41.4276 52.9815 45.3032C48.453 44.5709 44.287 42.6886 41.0282 39.9012C37.7692 37.1137 35.568 33.5512 34.7118 29.6779C39.2435 30.4038 43.4121 32.2856 46.67 35.076ZM14.3338 35.0696C17.7532 32.1297 22.1835 30.2035 26.9756 29.5732C27.874 35.2295 30.9157 40.4781 35.6349 44.5145C40.3541 48.5508 46.4903 51.1527 53.1039 51.9212C52.5468 54.973 51.1524 57.8686 49.035 60.3708C46.918 62.8729 44.1381 64.911 40.9229 66.3175C37.7078 67.7243 34.1489 68.4599 30.5375 68.4641C26.9261 68.468 23.3649 67.741 20.1454 66.3416C16.9258 64.9422 14.1394 62.9109 12.0144 60.4134C9.88923 57.9162 8.48579 55.0237 7.91889 51.9734C7.35195 48.923 7.6377 45.801 8.75266 42.8632C9.86766 39.9253 11.7802 37.2553 14.3338 35.0711V35.0696ZM8.02804 6.85724C12.5569 7.58944 16.7227 9.47208 19.9818 12.2595C23.2409 15.047 25.4421 18.6098 26.2982 22.4833C21.7696 21.7509 17.6041 19.8682 14.3453 17.0808C11.0865 14.2933 8.88558 10.7305 8.0297 6.85724H8.02804Z" fill="#3A3838"/>
</svg>
